<svg xmlns="http://www.w3.org/2000/svg" width="18" height="18" viewBox="0 0 18 18"><defs><style>.a{fill:#FFF4A3;}</style></defs><g transform="translate(-221.566 -677.566)"><path class="a" d="M44.75,33.5a3.762,3.762,0,0,1,3.75,3.75v7.5a3.762,3.762,0,0,1-3.75,3.75h-7.5a3.762,3.762,0,0,1-3.75-3.75v-7.5a3.762,3.762,0,0,1,3.75-3.75h7.5m0-1.5h-7.5A5.265,5.265,0,0,0,32,37.25v7.5A5.265,5.265,0,0,0,37.25,50h7.5A5.265,5.265,0,0,0,50,44.75v-7.5A5.265,5.265,0,0,0,44.75,32Z" transform="translate(189.566 645.566)"/><path class="a" d="M350.455,108.92a1.125,1.125,0,1,1,1.125-1.125,1.123,1.123,0,0,1-1.125,1.125Z" transform="translate(-115.014 573.896)"/><path class="a" d="M148.5,145.5a3,3,0,1,1-.585.058,2.992,2.992,0,0,1,.585-.058m0-1.5a4.5,4.5,0,1,0,.878.086A4.49,4.49,0,0,0,148.5,144Z" transform="translate(82.066 538.066)"/></g></svg>
