<svg xmlns="http://www.w3.org/2000/svg" width="52.123" height="46.555" viewBox="0 0 52.123 46.555"><defs><style>.a{fill:#ffffff;}</style></defs><g transform="translate(-95.164 -69.999)"><path class="a" d="M14.569-16078.446A6.575,6.575,0,0,1,8-16085.015v-25.062a6.575,6.575,0,0,1,6.568-6.568h2.59a4.561,4.561,0,0,0,3.8-2.035l2.258-3.4a6.557,6.557,0,0,1,5.467-2.926H39.436a6.557,6.557,0,0,1,5.467,2.926l2.262,3.4a4.554,4.554,0,0,0,3.8,2.035h2.59a6.575,6.575,0,0,1,6.568,6.568v25.062a6.575,6.575,0,0,1-6.568,6.568ZM10-16085.015a4.574,4.574,0,0,0,4.569,4.569H53.556a4.572,4.572,0,0,0,4.569-4.569v-7.718a30.444,30.444,0,0,1-9.457,3.51c-1.91.376-3.322.016-4.2-1.061a3.985,3.985,0,0,1-.805-2.1,11.631,11.631,0,0,1-4.723,3.12,3.674,3.674,0,0,1-3.844-.44,3.631,3.631,0,0,1-.979-1.882,6.554,6.554,0,0,1-3.116,2.331,10.932,10.932,0,0,1-4.816-.045c-.3.761-.627,1.542-.991,2.359a6.706,6.706,0,0,1-6,4.164,4.943,4.943,0,0,1-1.481-.219,4.032,4.032,0,0,1-2.408-1.95,5.433,5.433,0,0,1-.417-3.622,4.11,4.11,0,0,1,1.5-2.586A4.989,4.989,0,0,1,19-16092.1a22.281,22.281,0,0,1,5.916.551c.4-1.08.781-2.161,1.186-3.314.575-1.627,1.194-3.392,2-5.516a32.023,32.023,0,0,1-5.322,3.675,23.217,23.217,0,0,1-7.276,2.569,17.2,17.2,0,0,1-5.5.075Zm9.207-5.095c-1.441.154-2.121.712-2.351,1.918-.324,1.7.21,2.9,1.461,3.295a3.7,3.7,0,0,0,2.675-.308,5.105,5.105,0,0,0,2.375-2.546q.437-.977.805-1.9a25.055,25.055,0,0,0-4.156-.5A7.426,7.426,0,0,0,19.206-16090.109Zm17.426-7.4a13.535,13.535,0,0,1-.348,1.437c-.093.445-.186.972-.251,1.518-.093.806-.239,2.752.445,3.407.4.381,1.2.211,1.8,0a10.46,10.46,0,0,0,5.985-5.778c.3-1.008.607-1.721.623-1.761l1.894.615a11.122,11.122,0,0,1-.639,1.841c-.494,1.691-.834,3.809-.121,4.69.372.457,1.133.579,2.258.356a27.607,27.607,0,0,0,9.842-3.91v-14.98a4.572,4.572,0,0,0-4.569-4.569h-2.59a6.557,6.557,0,0,1-5.467-2.926l-2.258-3.4a4.561,4.561,0,0,0-3.8-2.035H28.688a4.554,4.554,0,0,0-3.8,2.035l-2.262,3.4a6.557,6.557,0,0,1-5.467,2.926h-2.59a4.574,4.574,0,0,0-4.569,4.569v13.988a15.025,15.025,0,0,0,5.314-.039,21.441,21.441,0,0,0,6.6-2.38,33.524,33.524,0,0,0,8.057-6.39l1.647,1.068c-1.7,4.145-2.728,7.058-3.634,9.632-.364,1.04-.708,2.02-1.068,2.99a8.577,8.577,0,0,0,3.468.053c1.643-.534,2.711-2.286,3.318-3.662a15.078,15.078,0,0,0,.643-1.753c.17-.809.336-1.359.344-1.4Zm-3.173-11.942v-3.277c.761.437,3.509,2.022,3.675,2.12a4.532,4.532,0,0,1-3.07,1.2A4.5,4.5,0,0,1,33.459-16109.449Zm-3.6-2.776,2.837-1.639v4.245A4.554,4.554,0,0,1,29.862-16112.226Zm4.957-.591,3.679-2.124a4.539,4.539,0,0,1-.842,3.764Zm-4.35-3.909,2.837,1.64c-.757.437-3.513,2.027-3.679,2.12A4.53,4.53,0,0,1,30.469-16116.726Zm4.957-1.558a4.554,4.554,0,0,1,2.837,2.606l-2.837,1.639Zm-4.435.987a4.512,4.512,0,0,1,3.679-1.157v3.277Z" transform="translate(87.164 16195)"/></g></svg>
