<svg xmlns="http://www.w3.org/2000/svg" width="464.105" height="398.149" viewBox="0 0 464.105 398.149"><defs><style>.logo-svg{fill:none;stroke:white;stroke-linecap:round;stroke-width:40px;}.b{fill:white;}</style></defs><g transform="translate(-280 -547)"><path class="logo-svg" d="M219.983,169.105a85.178,85.178,0,0,0,85.178-85.178c0-41.068-31.263-83.42-85.178-83.42-5.5-1.143-113.918,0-119.892,0" transform="translate(469.105 619.988) rotate(90)"/><path class="logo-svg" d="M219.983,0a85.178,85.178,0,0,1,85.178,85.178c0,41.068-31.263,83.42-85.178,83.42" transform="translate(724.105 499.988) rotate(90)"/><path class="b" d="M-1106.289-9529.576a62.309,62.309,0,0,1-24.41-4.929,62.609,62.609,0,0,1-10.653-5.782,63.217,63.217,0,0,1-9.281-7.657,63.213,63.213,0,0,1-7.658-9.281,62.758,62.758,0,0,1-5.782-10.653,62.316,62.316,0,0,1-4.928-24.409,62.317,62.317,0,0,1,4.928-24.41,62.758,62.758,0,0,1,5.782-10.653,63.213,63.213,0,0,1,7.658-9.281,63.155,63.155,0,0,1,9.281-7.657,62.764,62.764,0,0,1,10.653-5.782,62.331,62.331,0,0,1,24.41-4.928,62.335,62.335,0,0,1,24.411,4.928,62.75,62.75,0,0,1,10.653,5.782,63.118,63.118,0,0,1,9.281,7.657,63.152,63.152,0,0,1,7.658,9.281,62.748,62.748,0,0,1,5.782,10.653,62.321,62.321,0,0,1,4.928,24.41,62.316,62.316,0,0,1-4.928,24.409,62.725,62.725,0,0,1-5.782,10.653,63.211,63.211,0,0,1-7.658,9.281,63.118,63.118,0,0,1-9.281,7.657,62.609,62.609,0,0,1-10.653,5.782A62.314,62.314,0,0,1-1106.289-9529.576Zm-.305-95.424a32.184,32.184,0,0,0-12.614,2.547,32.28,32.28,0,0,0-10.3,6.944,32.276,32.276,0,0,0-6.945,10.3,32.2,32.2,0,0,0-2.547,12.615,32.2,32.2,0,0,0,2.547,12.613,32.291,32.291,0,0,0,6.945,10.3,32.293,32.293,0,0,0,10.3,6.945,32.185,32.185,0,0,0,12.614,2.547,32.179,32.179,0,0,0,12.612-2.547,32.291,32.291,0,0,0,10.3-6.945,32.288,32.288,0,0,0,6.945-10.3,32.2,32.2,0,0,0,2.547-12.613,32.2,32.2,0,0,0-2.547-12.615,32.284,32.284,0,0,0-6.945-10.3,32.281,32.281,0,0,0-10.3-6.944A32.179,32.179,0,0,0-1106.594-9625Z" transform="translate(1575 10202)"/></g></svg>
